<svg xmlns="http://www.w3.org/2000/svg" fill="none" aria-hidden="true" viewBox="0 0 480 320"><defs><linearGradient id="b" x1="211" x2="278" y1="42" y2="272" gradientUnits="userSpaceOnUse"><stop stop-color="#34303d"/><stop offset="1" stop-color="#4b5563"/></linearGradient><linearGradient id="c" x1="200" x2="286" y1="70" y2="236" gradientUnits="userSpaceOnUse"><stop data-accent-start="true" stop-color="#00d1d2"/><stop data-accent-end="true" offset="1" stop-color="#ff5b45"/></linearGradient><filter id="a" width="200" height="286" x="140" y="24" filterUnits="userSpaceOnUse"><feDropShadow dx="0" dy="16" flood-color="#34303d" flood-opacity=".2" stdDeviation="14"/></filter></defs><path stroke="#ddd" stroke-dasharray="5 9" stroke-linecap="round" stroke-width="2" d="M88 270c56 16 246 18 304-13"/><path stroke="#00d1d2" stroke-linecap="round" stroke-width="3" d="M116 113c-37-12-56-36-50-62 4-18 23-31 44-27" opacity=".7"/><path stroke="#ff5b45" stroke-linecap="round" stroke-width="3" d="M370 195c37 12 56 39 49 66-4 19-23 33-44 29" opacity=".7"/><g filter="url(#a)" transform="rotate(-12 240 160)"><rect width="72" height="224" x="204" y="48" fill="url(#b)" rx="28"/><rect width="56" height="198" x="212" y="64" stroke="#fff" stroke-opacity=".2" stroke-width="2" rx="21"/><rect width="40" height="82" x="220" y="93" fill="#fff" fill-opacity=".1" rx="18"/><rect width="22" height="8" x="229" y="109" fill="url(#c)" rx="4"/><circle cx="240" cy="145" r="12" fill="url(#c)"/><circle cx="240" cy="145" r="4.5" fill="#fff" fill-opacity=".8"/><rect width="28" height="7" x="226" y="196" fill="#fff" fill-opacity=".2" rx="3.5"/><path fill="#25232d" d="M276 119c7 0 11 5 11 12v26c0 7-4 12-11 12"/></g><circle cx="133" cy="66" r="5" fill="#00d1d2" opacity=".8"/><circle cx="350" cy="224" r="4" fill="#ff5b45" opacity=".8"/></svg>